<svg width="12" height="18" viewBox="0 0 12 18" fill="none" xmlns="http://www.w3.org/2000/svg">
<path d="M6.00002 17.325L5.65502 16.995L0.435022 11.76C0.292522 11.6438 0.226897 11.4581 0.268147 11.2781C0.309397 11.1 0.450022 10.9594 0.628147 10.9181C0.808147 10.8769 0.993772 10.9425 1.11002 11.085L5.52002 15.495V1.32001C5.51815 1.14751 5.60815 0.986261 5.75815 0.898138C5.90815 0.811888 6.0919 0.811888 6.2419 0.898138C6.3919 0.986261 6.4819 1.14751 6.48002 1.32001V15.495L10.89 11.085C11.0063 10.9425 11.1919 10.8769 11.3719 10.9181C11.55 10.9594 11.6906 11.1 11.7319 11.2781C11.7731 11.4581 11.7075 11.6438 11.565 11.76L6.34502 16.995L6.00002 17.325Z" fill="#D23232"/>
</svg>
