<svg width="24" height="24" viewBox="0 0 24 24" fill="none" xmlns="http://www.w3.org/2000/svg">
<path d="M24 19.5C24 21.9853 21.9853 24 19.5 24C17.0147 24 15 21.9853 15 19.5C15 17.0147 17.0147 15 19.5 15C21.9853 15 24 17.0147 24 19.5Z" fill="#4E0F8A"/>
<path d="M12 0.480011C10.9453 0.480011 10.08 1.34531 10.08 2.40001C10.08 2.64648 10.131 2.88129 10.2169 3.09845C7.45305 3.79751 5.76 6.05832 5.76 9.12001C5.76 14.0899 4.41292 15.3263 3.60844 16.065C3.23356 16.4092 2.88 16.7343 2.88 17.28C2.88 18.8918 4.95125 19.8124 9.17532 20.0775C9.13891 20.2614 9.12001 20.4494 9.12001 20.64C9.12001 22.2283 10.4117 23.52 12 23.52C12.9701 23.52 13.8281 23.0367 14.3503 22.2994C14.1367 21.9658 13.958 21.6088 13.8159 21.2334C13.5644 22.0005 12.8501 22.56 12 22.56C10.9411 22.56 10.08 21.6989 10.08 20.64C10.08 20.4619 10.1123 20.2905 10.1597 20.1225C10.7435 20.1441 11.3444 20.16 12 20.16C12.529 20.16 13.0362 20.1519 13.5234 20.1375C13.473 19.8318 13.44 19.5202 13.44 19.2C13.44 19.1928 13.4409 19.1861 13.4409 19.1794C12.9792 19.1923 12.5006 19.2 12 19.2C4.42849 19.2 3.84 17.7303 3.84 17.28C3.84 17.1672 3.96101 17.0445 4.25813 16.7719C5.11877 15.9818 6.72001 14.5119 6.72001 9.12001C6.72001 6.33908 8.27019 4.40706 10.8684 3.94032C11.1872 4.17587 11.5762 4.32001 12 4.32001C12.4233 4.32001 12.812 4.17633 13.1306 3.94126C15.7302 4.40651 17.28 6.3325 17.28 9.12001C17.28 10.9282 17.456 12.4095 17.8069 13.6163C18.1165 13.5395 18.4353 13.487 18.7622 13.4625C18.4171 12.3254 18.24 10.8735 18.24 9.12001C18.24 6.05032 16.5485 3.79537 13.7831 3.09845C13.869 2.88129 13.92 2.64648 13.92 2.40001C13.92 1.34531 13.0547 0.480011 12 0.480011ZM12 1.44001C12.5359 1.44001 12.96 1.86413 12.96 2.40001C12.96 2.93589 12.5359 3.36001 12 3.36001C11.4641 3.36001 11.04 2.93589 11.04 2.40001C11.04 1.86413 11.4641 1.44001 12 1.44001Z" fill="#1D1515"/>
</svg>
