<svg width="24" height="24" viewBox="0 0 24 24" fill="none" xmlns="http://www.w3.org/2000/svg">
<g clip-path="url(#clip0_209_390)">
<path d="M3.35999 0.960007V23.04H16.3378C17.1389 23.6395 18.1283 24 19.2 24C21.84 24 24 21.84 24 19.2C24 17.0614 22.5819 15.2387 20.64 14.6231V7.00126L14.5987 0.960007H3.35999ZM14.88 2.59876L19.0012 6.72001H14.88V2.59876ZM18.72 15.3938V19.2C18.72 19.3273 18.7706 19.4494 18.8606 19.5394C18.9506 19.6294 19.0727 19.68 19.2 19.68H23.0062C22.7676 21.5671 21.1491 23.04 19.2 23.04C17.088 23.04 15.36 21.312 15.36 19.2C15.36 17.2509 16.8329 15.6324 18.72 15.3938ZM19.68 15.3938C21.4093 15.6124 22.7876 16.9907 23.0062 18.72H19.68V15.3938Z" fill="#F4F3F3"/>
</g>
<defs>
<clipPath id="clip0_209_390">
<rect width="24" height="24" fill="white"/>
</clipPath>
</defs>
</svg>
