<svg width="12" height="18" viewBox="0 0 12 18" fill="none" xmlns="http://www.w3.org/2000/svg">
<path d="M6.00002 0.674988L5.65502 1.00499L0.435022 6.23999C0.292522 6.35624 0.226897 6.54186 0.268147 6.72186C0.309397 6.89999 0.450022 7.04061 0.628147 7.08186C0.808147 7.12311 0.993772 7.05749 1.11002 6.91499L5.52002 2.50499V16.68C5.51815 16.8525 5.60815 17.0137 5.75815 17.1019C5.90815 17.1881 6.0919 17.1881 6.2419 17.1019C6.3919 17.0137 6.4819 16.8525 6.48002 16.68V2.50499L10.89 6.91499C11.0063 7.05749 11.1919 7.12311 11.3719 7.08186C11.55 7.04061 11.6906 6.89999 11.7319 6.72186C11.7731 6.54186 11.7075 6.35624 11.565 6.23999L6.34502 1.00499L6.00002 0.674988Z" fill="#1AB759"/>
</svg>
