<svg width="24" height="24" viewBox="0 0 24 24" fill="none" xmlns="http://www.w3.org/2000/svg">
<g clip-path="url(#clip0_209_413)">
<path d="M18.5531 19.9612H24.03L23.9981 19.4531C23.85 16.9537 21.8662 16.17 20.2725 15.5419C19.3875 15.1912 18.5493 14.8612 18.3056 14.3287C18.2681 13.8787 18.2718 13.5281 18.2756 13.125V12.9619C18.6581 12.5625 19.0031 11.7769 19.14 11.1187C19.4343 10.9519 19.7868 10.5675 19.8937 9.6825C19.9462 9.23812 19.8225 8.89125 19.6462 8.655C19.8881 7.81875 20.3512 5.75437 19.5187 4.41562C19.1643 3.84562 18.6318 3.48375 17.9306 3.33937C17.5293 2.85187 16.785 2.5875 15.7912 2.5875C14.6512 2.61 13.7418 2.8875 13.0725 3.40312C12.7706 3.21 12.4275 3.06937 12.0337 2.9925C11.58 2.41875 10.7118 2.1075 9.5456 2.1075C7.77747 2.14125 6.4856 2.68125 5.70185 3.7125C4.77372 4.935 4.60122 6.78937 5.1881 9.225C4.97247 9.48937 4.8131 9.89625 4.87685 10.4306C5.00435 11.49 5.41497 11.9212 5.76185 12.0937C5.92685 12.9244 6.3806 13.86 6.82122 14.3006L6.8231 14.5256C6.82685 15.0112 6.8306 15.435 6.78372 15.9806C6.49122 16.6556 5.51247 17.04 4.3856 17.4844C2.50872 18.2212 0.174346 19.1381 -2.92975e-05 22.0519L-0.0300293 22.56H19.23L19.2 22.0519C19.1475 21.1969 18.9075 20.5181 18.5531 19.9612ZM1.02185 21.6C1.38372 19.695 3.08622 19.0275 4.73622 18.3769C6.05247 17.8612 7.29372 17.3719 7.7081 16.2619L7.73622 16.1362C7.79247 15.51 7.78872 15.0281 7.7831 14.5162L7.78122 14.0719L7.7906 13.7869L7.53372 13.6519C7.32372 13.5094 6.76122 12.5419 6.66935 11.6756L6.62622 11.28L6.2306 11.2481C6.16872 11.2425 5.92122 11.07 5.83122 10.3162C5.78435 9.93 5.97372 9.79312 5.97372 9.79312L6.27935 9.6075L6.18935 9.2625C5.60622 7.02 5.70372 5.3025 6.46872 4.29375C7.06497 3.50625 8.10747 3.09375 9.55497 3.0675C10.4568 3.0675 11.1225 3.2925 11.3381 3.66937L11.4543 3.87562L11.6887 3.9075C12.33 3.9975 12.7856 4.26937 13.08 4.74375C13.8168 5.93062 13.3893 8.1225 13.0218 9.23062L12.9206 9.59062L13.2281 9.79312C13.23 9.79312 13.4175 9.93 13.3706 10.3162C13.2806 11.07 13.0331 11.2425 12.9712 11.2481L12.5756 11.2819L12.5325 11.6756C12.4406 12.5456 11.895 13.5131 11.7037 13.6481L11.4468 13.7831L11.445 14.5181C11.4393 15.03 11.4356 15.51 11.4918 16.1362L11.52 16.2619C11.9325 17.3719 13.17 17.8594 14.4806 18.3769C15.42 18.7481 16.3743 19.1269 17.0887 19.7362C17.1375 19.8131 17.2031 19.8769 17.2856 19.9162C17.7225 20.3456 18.045 20.8875 18.1818 21.6H1.02185Z" fill="#F4F3F3"/>
</g>
<defs>
<clipPath id="clip0_209_413">
<rect width="24" height="24" fill="white"/>
</clipPath>
</defs>
</svg>
